<svg xmlns="http://www.w3.org/2000/svg" xmlns:xlink="http://www.w3.org/1999/xlink"><symbol id="telegr"><path d="m21.44 1.622-3.17 14.944c-.239 1.055-.862 1.317-1.748.82l-4.828-3.557-2.33 2.24c-.258.259-.473.474-.97.474l.347-4.917 8.948-8.086c.39-.347-.084-.54-.604-.192L6.022 10.314 1.26 8.823C.224 8.5.205 7.787 1.476 7.29L20.103.113c.863-.323 1.617.192 1.336 1.51Z" fill="#fff"/></symbol><symbol id="vkont"><path fill-rule="evenodd" clip-rule="evenodd" d="M23.45.948c.166-.546 0-.948-.795-.948H20.03c-.668 0-.976.347-1.143.73 0 0-1.335 3.196-3.226 5.272-.612.602-.89.793-1.224.793-.167 0-.418-.191-.418-.738V.948c0-.656-.184-.948-.74-.948H9.151c-.417 0-.668.304-.668.593 0 .621.946.765 1.043 2.513v3.798c0 .833-.153.984-.487.984-.89 0-3.055-3.211-4.34-6.885C4.45.288 4.198 0 3.527 0H.9C.15 0 0 .347 0 .73c0 .682.89 4.07 4.145 8.551C6.315 12.341 9.37 14 12.153 14c1.669 0 1.875-.368 1.875-1.003v-2.313c0-.737.158-.884.687-.884.39 0 1.057.192 2.615 1.667C19.11 13.216 19.403 14 20.405 14h2.625c.75 0 1.126-.368.91-1.096-.238-.724-1.088-1.775-2.215-3.022-.612-.71-1.53-1.475-1.809-1.858-.389-.491-.278-.71 0-1.147 0 0 3.2-4.426 3.533-5.929h.001Z" fill="#fff"/></symbol><symbol id="youtub"><path d="M17.181 0H2.813C1.306 0 0 1.3 0 2.8v8.3C0 12.7 1.306 14 2.813 14h14.368c1.608 0 2.814-1.3 2.814-2.8V2.8c.1-1.5-1.206-2.8-2.814-2.8ZM7.033 10.4V3.6L13.866 7l-6.833 3.4Z" fill="#fff"/></symbol></svg>