<svg width="40" height="37" viewBox="0 0 40 37" fill="none" xmlns="http://www.w3.org/2000/svg">
<path d="M15.9015 33.2194H24.2549V21.0613H15.9015V33.2194ZM22.7408 31.7441H17.4155V22.5365H22.6886V31.7441H22.7408Z" fill="#81B3D2"/>
<path d="M38.4036 20.0431L39.5 18.9748L34.3313 13.9386V0.203483H27.1265V6.91843L19.9739 0L0.5 19.0257L1.59639 20.094L5.66867 16.126V35.3552H3.63253V36.8305H36.994V35.3552H34.3313V16.0752L38.4036 20.0431ZM28.6406 1.72961H32.7651V12.4633L28.6406 8.44455V1.72961ZM32.8173 35.3043H7.23494V14.5999L19.9739 2.13657L32.7651 14.5999V35.3043H32.8173Z" fill="#81B3D2"/>
<path d="M16.0582 13.8369C16.0582 16.0243 17.8855 17.8048 20.0783 17.8048C22.3233 17.8048 24.1506 16.0243 24.1506 13.8369C24.1506 11.6494 22.3233 9.9198 20.0783 9.9198C17.8333 9.9198 16.0582 11.6494 16.0582 13.8369ZM20.0783 11.2933C21.4879 11.2933 22.6888 12.4125 22.6888 13.8369C22.6888 15.2104 21.5402 16.3804 20.0783 16.3804C18.6687 16.3804 17.4679 15.2612 17.4679 13.8369C17.4679 12.4633 18.6687 11.2933 20.0783 11.2933Z" fill="#81B3D2"/>
<path d="M10.8895 21.0613H9.32324V23.0452H10.8895V21.0613Z" fill="#81B3D2"/>
<path d="M13.9698 21.0613H12.4036V23.0452H13.9698V21.0613Z" fill="#81B3D2"/>
<path d="M10.8895 24.1128H9.32324V26.0968H10.8895V24.1128Z" fill="#81B3D2"/>
<path d="M13.9698 24.1128H12.4036V26.0968H13.9698V24.1128Z" fill="#81B3D2"/>
<path d="M27.5443 21.0613H25.978V23.0452H27.5443V21.0613Z" fill="#81B3D2"/>
<path d="M30.6769 21.0613H29.1106V23.0452H30.6769V21.0613Z" fill="#81B3D2"/>
<path d="M27.5443 24.1128H25.978V26.0968H27.5443V24.1128Z" fill="#81B3D2"/>
<path d="M30.6769 24.1128H29.1106V26.0968H30.6769V24.1128Z" fill="#81B3D2"/>
</svg>
